<svg width="15" height="15" viewBox="0 0 15 15" fill="none" xmlns="http://www.w3.org/2000/svg">
<path d="M12.32 5.86716H1.76001M12.32 7.33383V5.16316C12.32 4.17747 12.32 3.68462 12.1282 3.30814C11.9594 2.97697 11.6902 2.70773 11.359 2.53899C10.9825 2.34716 10.4897 2.34716 9.50401 2.34716H4.57601C3.59032 2.34716 3.09747 2.34716 2.72099 2.53899C2.38982 2.70773 2.12058 2.97697 1.95184 3.30814C1.76001 3.68462 1.76001 4.17747 1.76001 5.16316V10.0912C1.76001 11.0769 1.76001 11.5697 1.95184 11.9462C2.12058 12.2774 2.38982 12.5466 2.72099 12.7153C3.09747 12.9072 3.59032 12.9072 4.57601 12.9072H7.04001M9.38668 1.17383V3.52049M4.69334 1.17383V3.52049" stroke="#5B5B5B" stroke-width="0.7" stroke-linecap="round" stroke-linejoin="round"/>
<path d="M10 9.08594V13.0859M7.94043 11.0859H12" stroke="#5B5B5B" stroke-width="0.579939" stroke-linecap="round" stroke-linejoin="round"/>
</svg>
