<svg width="20" height="20" viewBox="0 0 20 20" fill="none" xmlns="http://www.w3.org/2000/svg">
<path d="M16 7.5H4M16 9.5V6.6C16 5.44 16 4.86 15.782 4.419C15.591 4.03 15.27 3.71 14.881 3.518C14.44 3.3 13.86 3.3 12.7 3.3H7.3C6.14 3.3 5.56 3.3 5.119 3.518C4.73 3.71 4.41 4.03 4.218 4.419C4 4.86 4 5.44 4 6.6V13.4C4 14.56 4 15.14 4.218 15.581C4.41 15.97 4.73 16.29 5.119 16.482C5.56 16.7 6.14 16.7 7.3 16.7H10M12.5 2V4.5M7.5 2V4.5" stroke="currentColor" stroke-width="1.2" stroke-linecap="round" stroke-linejoin="round"/>
<path d="M12.5 15L14 16.5L17.5 13" stroke="currentColor" stroke-width="1.2" stroke-linecap="round" stroke-linejoin="round"/>
</svg>
