<svg width="22" height="22" viewBox="0 0 22 22" fill="none" xmlns="http://www.w3.org/2000/svg">
<path fill-rule="evenodd" clip-rule="evenodd" d="M10.5416 2.52148C6.1118 2.52148 2.52075 6.11253 2.52075 10.5423C2.52075 14.9721 6.1118 18.5632 10.5416 18.5632C14.9714 18.5632 18.5624 14.9721 18.5624 10.5423C18.5624 6.11253 14.9714 2.52148 10.5416 2.52148ZM1.14575 10.5423C1.14575 5.35314 5.35241 1.14648 10.5416 1.14648C15.7308 1.14648 19.9374 5.35314 19.9374 10.5423C19.9374 12.8895 19.0768 15.0356 17.6539 16.6823L20.6527 19.6812C20.9212 19.9497 20.9212 20.385 20.6527 20.6535C20.3842 20.9219 19.9489 20.9219 19.6804 20.6535L16.6816 17.6546C15.0348 19.0775 12.8887 19.9382 10.5416 19.9382C5.35241 19.9382 1.14575 15.7315 1.14575 10.5423Z" fill="#1E293B"/>
</svg>
