<svg width="13" height="13" viewBox="0 0 13 13" fill="none" xmlns="http://www.w3.org/2000/svg">
<path d="M2.9901 6.80294L3.45031 7.72337C3.60607 8.03488 3.68394 8.19064 3.78798 8.32561C3.8803 8.44537 3.98767 8.55274 4.10744 8.64506C4.24241 8.7491 4.39816 8.82697 4.70967 8.98273L5.6301 9.44294L4.70967 9.90316C4.39816 10.0589 4.24241 10.1368 4.10744 10.2408C3.98767 10.3331 3.8803 10.4405 3.78798 10.5603C3.68394 10.6953 3.60607 10.851 3.45031 11.1625L2.9901 12.0829L2.52988 11.1625C2.37413 10.851 2.29625 10.6953 2.19221 10.5603C2.09989 10.4405 1.99253 10.3331 1.87276 10.2408C1.73779 10.1368 1.58204 10.0589 1.27053 9.90316L0.350098 9.44294L1.27053 8.98273C1.58204 8.82697 1.73779 8.7491 1.87276 8.64506C1.99253 8.55274 2.09989 8.44537 2.19221 8.32561C2.29625 8.19064 2.37413 8.03488 2.52988 7.72337L2.9901 6.80294Z" stroke="#5B5B5B" stroke-width="0.7" stroke-linecap="round" stroke-linejoin="round"/>
<path d="M7.97676 0.349609L8.66822 2.1474C8.83367 2.57756 8.91639 2.79264 9.04503 2.97356C9.15905 3.1339 9.29914 3.27399 9.45948 3.38801C9.6404 3.51665 9.85548 3.59937 10.2856 3.76482L12.0834 4.45628L10.2856 5.14773C9.85548 5.31318 9.6404 5.3959 9.45948 5.52455C9.29914 5.63856 9.15905 5.77865 9.04504 5.93899C8.91639 6.11991 8.83367 6.33499 8.66822 6.76515L7.97677 8.56294L7.28531 6.76515C7.11986 6.33499 7.03714 6.11991 6.9085 5.93899C6.79448 5.77865 6.65439 5.63856 6.49405 5.52455C6.31313 5.3959 6.09805 5.31318 5.66789 5.14773L3.8701 4.45628L5.66789 3.76482C6.09805 3.59937 6.31313 3.51665 6.49405 3.38801C6.65439 3.27399 6.79448 3.1339 6.9085 2.97356C7.03714 2.79264 7.11986 2.57756 7.28531 2.1474L7.97676 0.349609Z" stroke="#5B5B5B" stroke-width="0.7" stroke-linecap="round" stroke-linejoin="round"/>
</svg>
