<svg width="20" height="20" viewBox="0 0 20 20" fill="none" xmlns="http://www.w3.org/2000/svg">
<rect width="19.5285" height="19.5285" rx="9.76423" fill="url(#paint0_linear_546_11946)"/>
<path d="M9.8646 5.76604L10.2395 6.80705C10.6559 7.96244 11.5658 8.87228 12.7212 9.28869L13.7623 9.66355C13.8561 9.69763 13.8561 9.83067 13.7623 9.86428L12.7212 10.2391C11.5658 10.6556 10.6559 11.5654 10.2395 12.7208L9.8646 13.7618C9.83052 13.8556 9.69747 13.8556 9.66386 13.7618L9.28898 12.7208C8.87256 11.5654 7.96268 10.6556 6.80724 10.2391L5.76618 9.86428C5.67234 9.83021 5.67234 9.69716 5.76618 9.66355L6.80724 9.28869C7.96268 8.87228 8.87256 7.96244 9.28898 6.80705L9.66386 5.76604C9.69747 5.67174 9.83052 5.67174 9.8646 5.76604Z" fill="white"/>
<defs>
<linearGradient id="paint0_linear_546_11946" x1="9.76423" y1="0" x2="9.76423" y2="19.5285" gradientUnits="userSpaceOnUse">
<stop stop-color="#3C6FD1"/>
<stop offset="0.0001" stop-color="#048F86"/>
<stop offset="1" stop-color="#6DCDCD"/>
</linearGradient>
</defs>
</svg>
